<svg xmlns="http://www.w3.org/2000/svg" width="64" height="64" viewBox="0 0 16 16" shape-rendering="crispEdges">
  <rect x="4" y="4" width="8" height="1" fill="#E2F0FF" />
  <rect x="3" y="5" width="10" height="1" fill="#E2F0FF" />
  <rect x="3" y="6" width="10" height="1" fill="#E2F0FF" />
  <rect x="2" y="7" width="12" height="2" fill="#E2F0FF" />
  <rect x="3" y="9" width="10" height="1" fill="#E2F0FF" />
  <rect x="3" y="10" width="10" height="1" fill="#E2F0FF" />
  <rect x="4" y="11" width="8" height="1" fill="#E2F0FF" />
  <rect x="4" y="5" width="8" height="1" fill="#D0E7FF" />
  <rect x="4" y="6" width="8" height="1" fill="#D0E7FF" />
  <rect x="3" y="7" width="10" height="2" fill="#D0E7FF" />
  <rect x="4" y="9" width="8" height="1" fill="#D0E7FF" />
  <rect x="4" y="10" width="8" height="1" fill="#D0E7FF" />
  <rect x="5" y="6" width="2" height="1" fill="#F7FBFF" />
  <rect x="5" y="7" width="1" height="1" fill="#F7FBFF" />
  <rect x="7" y="10" width="3" height="1" fill="#B4D0F5" />
</svg>