<svg xmlns="http://www.w3.org/2000/svg" width="64" height="64" viewBox="0 0 16 16" shape-rendering="crispEdges">
  <rect x="7" y="1" width="2" height="1" fill="#FFD93B" />
  <rect x="7" y="2" width="2" height="1" fill="#FFD93B" />
  <rect x="6" y="2" width="1" height="1" fill="#FFD93B" />
  <rect x="9" y="2" width="1" height="1" fill="#FFD93B" />
  <rect x="7" y="3" width="2" height="1" fill="#2F855A" />
  <rect x="6" y="4" width="4" height="1" fill="#2F855A" />
  <rect x="5" y="5" width="6" height="1" fill="#2F855A" />
  <rect x="4" y="6" width="8" height="2" fill="#276749" />
  <rect x="5" y="8" width="6" height="1" fill="#2F855A" />
  <rect x="4" y="9" width="8" height="1" fill="#2F855A" />
  <rect x="3" y="10" width="10" height="1" fill="#276749" />
  <rect x="5" y="6" width="1" height="1" fill="#E53E3E" />
  <rect x="9" y="7" width="1" height="1" fill="#F6E05E" />
  <rect x="6" y="9" width="1" height="1" fill="#63B3ED" />
  <rect x="10" y="9" width="1" height="1" fill="#ED64A6" />
  <rect x="7" y="11" width="2" height="3" fill="#8B5A2B" />
</svg>