<svg xmlns="http://www.w3.org/2000/svg" width="64" height="64" viewBox="0 0 16 16" shape-rendering="crispEdges">
  <rect x="6" y="2" width="4" height="1" fill="#C53030" />
  <rect x="7" y="1" width="2" height="1" fill="#C53030" />
  <rect x="9" y="1" width="1" height="1" fill="#F6E05E" />
  <rect x="6" y="3" width="4" height="2" fill="#FBD38D" />
  <rect x="7" y="4" width="1" height="1" fill="#2D3748" />
  <rect x="5" y="4" width="1" height="1" fill="#F6AD55" />
  <rect x="6" y="5" width="4" height="3" fill="#2F855A" />
  <rect x="6" y="8" width="4" height="1" fill="#276749" />
  <rect x="7" y="8" width="1" height="1" fill="#ECC94B" />
  <rect x="5" y="6" width="1" height="2" fill="#2F855A" />
  <rect x="10" y="6" width="1" height="2" fill="#2F855A" />
  <rect x="5" y="8" width="1" height="1" fill="#FBD38D" />
  <rect x="10" y="8" width="1" height="1" fill="#FBD38D" />
  <rect x="6" y="9" width="1" height="2" fill="#22543D" />
  <rect x="9" y="9" width="1" height="2" fill="#22543D" />
  <rect x="5" y="11" width="2" height="1" fill="#1A202C" />
  <rect x="9" y="11" width="2" height="1" fill="#1A202C" />
</svg>